<svg width="80" height="88" viewBox="0 0 80 88" fill="none" xmlns="http://www.w3.org/2000/svg">
<g id="img">
<g id="glass">
<g id="Rectangle 1480" filter="url(#filter0_b_151_8336)">
<path d="M0 47.8954C0 25.8618 17.9664 8 40 8C62.0336 8 80 25.8618 80 47.8954C80 69.929 62.0336 87.7908 40 87.7908C17.9664 87.7908 0 69.929 0 47.8954Z" fill="url(#paint0_radial_151_8336)"/>
<path d="M0.5 47.8954C0.5 26.1396 18.2408 8.5 40 8.5C61.7592 8.5 79.5 26.1396 79.5 47.8954C79.5 69.6512 61.7592 87.2908 40 87.2908C18.2408 87.2908 0.5 69.6512 0.5 47.8954Z" stroke="url(#paint1_radial_151_8336)"/>
<path d="M0.5 47.8954C0.5 26.1396 18.2408 8.5 40 8.5C61.7592 8.5 79.5 26.1396 79.5 47.8954C79.5 69.6512 61.7592 87.2908 40 87.2908C18.2408 87.2908 0.5 69.6512 0.5 47.8954Z" stroke="url(#paint2_radial_151_8336)"/>
<path d="M0.5 47.8954C0.5 26.1396 18.2408 8.5 40 8.5C61.7592 8.5 79.5 26.1396 79.5 47.8954C79.5 69.6512 61.7592 87.2908 40 87.2908C18.2408 87.2908 0.5 69.6512 0.5 47.8954Z" stroke="url(#paint3_radial_151_8336)"/>
</g>
<g id="Ellipse 1536" filter="url(#filter1_f_151_8336)">
<ellipse cx="39.7435" cy="29.4826" rx="25.3846" ry="16.3673" fill="url(#paint4_radial_151_8336)" fill-opacity="0.2"/>
</g>
<path id="Icon" d="M41.9556 46.1907L24.3916 63.7546M43.8385 32.3955C46.0904 33.8898 48.2548 35.6514 50.2775 37.674C52.3175 39.7141 54.0921 41.8984 55.5945 44.1713M35.0316 40.4522L29.7164 38.6804C29.1043 38.4764 28.4301 38.6062 27.9376 39.023L22.6551 43.4928C21.5737 44.4078 21.8809 46.1492 23.2102 46.639L28.2154 48.483M39.517 59.7843L41.361 64.7895C41.8508 66.1187 43.5922 66.426 44.5073 65.3445L48.977 60.0621C49.3938 59.5696 49.5236 58.8954 49.3196 58.2832L47.5479 52.9681M53.6931 30.0517L44.6218 31.5636C43.6423 31.7268 42.7438 32.2083 42.0654 32.9335L29.839 46.0031C26.6698 49.3909 26.7579 54.6815 30.0382 57.9618C33.3185 61.2421 38.6091 61.3302 41.9969 58.161L55.0665 45.9346C55.7917 45.2562 56.2732 44.3577 56.4364 43.3782L57.9483 34.3069C58.3654 31.8043 56.1957 29.6346 53.6931 30.0517Z" stroke="url(#paint5_linear_151_8336)" stroke-width="3" stroke-linecap="round" stroke-linejoin="round"/>
</g>
</g>
<defs>
<filter id="filter0_b_151_8336" x="-5" y="3" width="90" height="89.791" filterUnits="userSpaceOnUse" color-interpolation-filters="sRGB">
<feFlood flood-opacity="0" result="BackgroundImageFix"/>
<feGaussianBlur in="BackgroundImageFix" stdDeviation="2.5"/>
<feComposite in2="SourceAlpha" operator="in" result="effect1_backgroundBlur_151_8336"/>
<feBlend mode="normal" in="SourceGraphic" in2="effect1_backgroundBlur_151_8336" result="shape"/>
</filter>
<filter id="filter1_f_151_8336" x="1.40435" y="0.1607" width="76.6784" height="58.6434" filterUnits="userSpaceOnUse" color-interpolation-filters="sRGB">
<feFlood flood-opacity="0" result="BackgroundImageFix"/>
<feBlend mode="normal" in="SourceGraphic" in2="BackgroundImageFix" result="shape"/>
<feGaussianBlur stdDeviation="6.47727" result="effect1_foregroundBlur_151_8336"/>
</filter>
<radialGradient id="paint0_radial_151_8336" cx="0" cy="0" r="1" gradientUnits="userSpaceOnUse" gradientTransform="translate(6.69204 8) rotate(47.9449) scale(119.431 86.7751)">
<stop stop-color="white" stop-opacity="0.36"/>
<stop offset="1" stop-color="white" stop-opacity="0"/>
</radialGradient>
<radialGradient id="paint1_radial_151_8336" cx="0" cy="0" r="1" gradientUnits="userSpaceOnUse" gradientTransform="translate(-42.5965 16.1628) rotate(35.0407) scale(92.1512 54.3882)">
<stop stop-color="white"/>
<stop offset="1" stop-color="white" stop-opacity="0.06"/>
</radialGradient>
<radialGradient id="paint2_radial_151_8336" cx="0" cy="0" r="1" gradientUnits="userSpaceOnUse" gradientTransform="translate(103.421 61.4008) rotate(161.385) scale(66.8428 45.1784)">
<stop stop-color="#8470FF"/>
<stop offset="1" stop-color="#865CFF" stop-opacity="0"/>
</radialGradient>
<radialGradient id="paint3_radial_151_8336" cx="0" cy="0" r="1" gradientUnits="userSpaceOnUse" gradientTransform="translate(40.871 -10.2359) rotate(47.2149) scale(44.643 32.0879)">
<stop/>
<stop offset="1" stop-color="white" stop-opacity="0"/>
</radialGradient>
<radialGradient id="paint4_radial_151_8336" cx="0" cy="0" r="1" gradientUnits="userSpaceOnUse" gradientTransform="translate(39.7435 13.1152) rotate(90) scale(24.2566 37.625)">
<stop stop-color="white"/>
<stop offset="1" stop-color="white" stop-opacity="0"/>
</radialGradient>
<linearGradient id="paint5_linear_151_8336" x1="62.68" y1="30" x2="22.0003" y2="66" gradientUnits="userSpaceOnUse">
<stop stop-color="#E4FD84"/>
<stop offset="0.989583" stop-color="#EBAE79"/>
</linearGradient>
</defs>
</svg>
